<svg xmlns="http://www.w3.org/2000/svg" width="1280" height="500"><path d="M42,705L-160,725L548,715Z" fill="#2a5587" stroke="#2a5587" stroke-width="1.51"/><path d="M-143,-180L163,-196L553,-223Z" fill="#68a0e5" stroke="#68a0e5" stroke-width="1.51"/><path d="M553,-223L920,-213L1344,-226Z" fill="#4e79b6" stroke="#4e79b6" stroke-width="1.51"/><path d="M920,-213L1197,-196L1344,-226Z" fill="#476da1" stroke="#476da1" stroke-width="1.51"/><path d="M1073,684L837,716L1415,673Z" fill="#07294f" stroke="#07294f" stroke-width="1.51"/><path d="M1336,660L1215,663L1415,673Z" fill="#052242" stroke="#052242" stroke-width="1.51"/><path d="M1215,663L1073,684L1415,673Z" fill="#072446" stroke="#072446" stroke-width="1.51"/><path d="M1428,547L1415,673L1464,420Z" fill="#06264a" stroke="#06264a" stroke-width="1.51"/><path d="M1456,200L1421,300L1464,420Z" fill="#0d3a6d" stroke="#0d3a6d" stroke-width="1.51"/><path d="M1347,68L1456,200L1485,30Z" fill="#1e4c80" stroke="#1e4c80" stroke-width="1.51"/><path d="M1434,-89L1347,68L1485,30Z" fill="#275487" stroke="#275487" stroke-width="1.51"/><path d="M1431,-221L1434,-89L1485,30Z" fill="#30598a" stroke="#30598a" stroke-width="1.51"/><path d="M1456,200L1464,420L1485,30Z" fill="#134275" stroke="#134275" stroke-width="1.51"/><path d="M1319,451L1355,544L1428,547Z" fill="#082b52" stroke="#082b52" stroke-width="1.51"/><path d="M1312,-62L1347,68L1434,-89Z" fill="#2b588c" stroke="#2b588c" stroke-width="1.51"/><path d="M1431,-221L1344,-226L1434,-89Z" fill="#3c618f" stroke="#3c618f" stroke-width="1.51"/><path d="M1347,68L1298,149L1456,200Z" fill="#1c4b81" stroke="#1c4b81" stroke-width="1.51"/><path d="M1421,300L1362,314L1464,420Z" fill="#0c3768" stroke="#0c3768" stroke-width="1.51"/><path d="M1362,314L1319,451L1464,420Z" fill="#0a3463" stroke="#0a3463" stroke-width="1.51"/><path d="M1319,451L1428,547L1464,420Z" fill="#082d56" stroke="#082d56" stroke-width="1.51"/><path d="M1355,544L1336,660L1415,673Z" fill="#062343" stroke="#062343" stroke-width="1.51"/><path d="M1355,544L1415,673L1428,547Z" fill="#062445" stroke="#062445" stroke-width="1.51"/><path d="M1362,314L1421,300L1456,200Z" fill="#103f73" stroke="#103f73" stroke-width="1.51"/><path d="M1298,149L1362,314L1456,200Z" fill="#15457b" stroke="#15457b" stroke-width="1.51"/><path d="M1344,-226L1312,-62L1434,-89Z" fill="#365e90" stroke="#365e90" stroke-width="1.51"/><path d="M1185,582L1215,663L1336,660Z" fill="#072649" stroke="#072649" stroke-width="1.51"/><path d="M1197,-196L1312,-62L1344,-226Z" fill="#3c6495" stroke="#3c6495" stroke-width="1.51"/><path d="M1185,582L1336,660L1355,544Z" fill="#07274a" stroke="#07274a" stroke-width="1.51"/><path d="M1298,149L1185,196L1362,314Z" fill="#174880" stroke="#174880" stroke-width="1.51"/><path d="M1185,196L1193,351L1362,314Z" fill="#12437a" stroke="#12437a" stroke-width="1.51"/><path d="M1193,351L1319,451L1362,314Z" fill="#0e396b" stroke="#0e396b" stroke-width="1.51"/><path d="M920,-213L1043,-170L1197,-196Z" fill="#4771aa" stroke="#4771aa" stroke-width="1.51"/><path d="M1312,-62L1167,90L1347,68Z" fill="#28578e" stroke="#28578e" stroke-width="1.51"/><path d="M1319,451L1185,582L1355,544Z" fill="#092c54" stroke="#092c54" stroke-width="1.51"/><path d="M1197,-196L1186,-82L1312,-62Z" fill="#376297" stroke="#376297" stroke-width="1.51"/><path d="M1167,90L1298,149L1347,68Z" fill="#21528a" stroke="#21528a" stroke-width="1.51"/><path d="M1186,-82L1167,90L1312,-62Z" fill="#2d5c93" stroke="#2d5c93" stroke-width="1.51"/><path d="M1193,351L1168,430L1319,451Z" fill="#0d3869" stroke="#0d3869" stroke-width="1.51"/><path d="M1168,430L1185,582L1319,451Z" fill="#0b315d" stroke="#0b315d" stroke-width="1.51"/><path d="M163,-196L473,-205L553,-223Z" fill="#6098dd" stroke="#6098dd" stroke-width="1.51"/><path d="M1167,90L1185,196L1298,149Z" fill="#1f508a" stroke="#1f508a" stroke-width="1.51"/><path d="M1168,430L1098,470L1185,582Z" fill="#0c3462" stroke="#0c3462" stroke-width="1.51"/><path d="M1098,470L1088,549L1185,582Z" fill="#0b325f" stroke="#0b325f" stroke-width="1.51"/><path d="M1085,-85L1167,90L1186,-82Z" fill="#30609b" stroke="#30609b" stroke-width="1.51"/><path d="M1185,196L1091,292L1193,351Z" fill="#144882" stroke="#144882" stroke-width="1.51"/><path d="M1085,-85L1186,-82L1197,-196Z" fill="#3a679e" stroke="#3a679e" stroke-width="1.51"/><path d="M1185,582L1073,684L1215,663Z" fill="#08294f" stroke="#08294f" stroke-width="1.51"/><path d="M957,665L837,716L1073,684Z" fill="#09305c" stroke="#09305c" stroke-width="1.51"/><path d="M1085,-85L1040,69L1167,90Z" fill="#2c5f9c" stroke="#2c5f9c" stroke-width="1.51"/><path d="M1167,90L1087,217L1185,196Z" fill="#1e528e" stroke="#1e528e" stroke-width="1.51"/><path d="M1087,217L1091,292L1185,196Z" fill="#184e8b" stroke="#184e8b" stroke-width="1.51"/><path d="M1043,-170L1085,-85L1197,-196Z" fill="#3f6ba4" stroke="#3f6ba4" stroke-width="1.51"/><path d="M1088,549L1073,684L1185,582Z" fill="#0a2e56" stroke="#0a2e56" stroke-width="1.51"/><path d="M1091,292L1168,430L1193,351Z" fill="#104177" stroke="#104177" stroke-width="1.51"/><path d="M1040,69L1087,217L1167,90Z" fill="#225896" stroke="#225896" stroke-width="1.51"/><path d="M1091,292L1098,470L1168,430Z" fill="#0f3e74" stroke="#0f3e74" stroke-width="1.51"/><path d="M553,-223L700,-172L920,-213Z" fill="#5385c9" stroke="#5385c9" stroke-width="1.51"/><path d="M936,-100L1040,69L1085,-85Z" fill="#3368a8" stroke="#3368a8" stroke-width="1.51"/><path d="M1040,69L919,221L1087,217Z" fill="#20589b" stroke="#20589b" stroke-width="1.51"/><path d="M957,665L1073,684L1088,549Z" fill="#0a305a" stroke="#0a305a" stroke-width="1.51"/><path d="M937,550L957,665L1088,549Z" fill="#0c3462" stroke="#0c3462" stroke-width="1.51"/><path d="M933,294L987,455L1091,292Z" fill="#124886" stroke="#124886" stroke-width="1.51"/><path d="M1091,292L987,455L1098,470Z" fill="#0f4078" stroke="#0f4078" stroke-width="1.51"/><path d="M987,455L1088,549L1098,470Z" fill="#0d396b" stroke="#0d396b" stroke-width="1.51"/><path d="M936,-100L941,61L1040,69Z" fill="#3067aa" stroke="#3067aa" stroke-width="1.51"/><path d="M1087,217L933,294L1091,292Z" fill="#164f8f" stroke="#164f8f" stroke-width="1.51"/><path d="M919,221L933,294L1087,217Z" fill="#185498" stroke="#185498" stroke-width="1.51"/><path d="M987,455L937,550L1088,549Z" fill="#0d396b" stroke="#0d396b" stroke-width="1.51"/><path d="M1043,-170L936,-100L1085,-85Z" fill="#3d6dab" stroke="#3d6dab" stroke-width="1.51"/><path d="M941,61L919,221L1040,69Z" fill="#255fa3" stroke="#255fa3" stroke-width="1.51"/><path d="M233,669L42,705L548,715Z" fill="#245185" stroke="#245185" stroke-width="1.51"/><path d="M920,-213L936,-100L1043,-170Z" fill="#4573b2" stroke="#4573b2" stroke-width="1.51"/><path d="M363,671L233,669L548,715Z" fill="#1f4d82" stroke="#1f4d82" stroke-width="1.51"/><path d="M858,158L919,221L941,61Z" fill="#2460a7" stroke="#2460a7" stroke-width="1.51"/><path d="M936,-100L866,-57L941,61Z" fill="#356db1" stroke="#356db1" stroke-width="1.51"/><path d="M790,420L937,550L987,455Z" fill="#10417b" stroke="#10417b" stroke-width="1.51"/><path d="M933,294L790,420L987,455Z" fill="#134988" stroke="#134988" stroke-width="1.51"/><path d="M815,285L790,420L933,294Z" fill="#165296" stroke="#165296" stroke-width="1.51"/><path d="M920,-213L861,-157L936,-100Z" fill="#4677b7" stroke="#4677b7" stroke-width="1.51"/><path d="M790,420L821,547L937,550Z" fill="#10427b" stroke="#10427b" stroke-width="1.51"/><path d="M937,550L821,547L957,665Z" fill="#0e396a" stroke="#0e396a" stroke-width="1.51"/><path d="M821,547L837,716L957,665Z" fill="#0c3767" stroke="#0c3767" stroke-width="1.51"/><path d="M866,-57L815,88L941,61Z" fill="#306bb1" stroke="#306bb1" stroke-width="1.51"/><path d="M815,88L858,158L941,61Z" fill="#2966ad" stroke="#2966ad" stroke-width="1.51"/><path d="M700,-172L861,-157L920,-213Z" fill="#4c7dbf" stroke="#4c7dbf" stroke-width="1.51"/><path d="M919,221L815,285L933,294Z" fill="#18569e" stroke="#18569e" stroke-width="1.51"/><path d="M861,-157L866,-57L936,-100Z" fill="#3f74b7" stroke="#3f74b7" stroke-width="1.51"/><path d="M858,158L815,285L919,221Z" fill="#1e5ca5" stroke="#1e5ca5" stroke-width="1.51"/><path d="M821,547L732,716L837,716Z" fill="#0e3a6c" stroke="#0e3a6c" stroke-width="1.51"/><path d="M675,165L815,285L858,158Z" fill="#2262ae" stroke="#2262ae" stroke-width="1.51"/><path d="M711,40L815,88L866,-57Z" fill="#3370b9" stroke="#3370b9" stroke-width="1.51"/><path d="M717,-91L711,40L866,-57Z" fill="#3b76c0" stroke="#3b76c0" stroke-width="1.51"/><path d="M861,-157L717,-91L866,-57Z" fill="#4078be" stroke="#4078be" stroke-width="1.51"/><path d="M700,-172L717,-91L861,-157Z" fill="#487ec4" stroke="#487ec4" stroke-width="1.51"/><path d="M669,597L732,716L821,547Z" fill="#114074" stroke="#114074" stroke-width="1.51"/><path d="M815,88L675,165L858,158Z" fill="#2968b3" stroke="#2968b3" stroke-width="1.51"/><path d="M709,295L721,409L790,420Z" fill="#175499" stroke="#175499" stroke-width="1.51"/><path d="M675,165L709,295L815,285Z" fill="#1e61ae" stroke="#1e61ae" stroke-width="1.51"/><path d="M709,295L790,420L815,285Z" fill="#19569d" stroke="#19569d" stroke-width="1.51"/><path d="M790,420L721,409L821,547Z" fill="#134a89" stroke="#134a89" stroke-width="1.51"/><path d="M721,409L669,597L821,547Z" fill="#134783" stroke="#134783" stroke-width="1.51"/><path d="M711,40L675,165L815,88Z" fill="#2e6ebb" stroke="#2e6ebb" stroke-width="1.51"/><path d="M163,-196L354,-177L473,-205Z" fill="#619adf" stroke="#619adf" stroke-width="1.51"/><path d="M594,-54L711,40L717,-91Z" fill="#3d7cc8" stroke="#3d7cc8" stroke-width="1.51"/><path d="M709,295L552,325L721,409Z" fill="#1b5ca6" stroke="#1b5ca6" stroke-width="1.51"/><path d="M596,460L669,597L721,409Z" fill="#164e8e" stroke="#164e8e" stroke-width="1.51"/><path d="M669,597L548,715L732,716Z" fill="#114177" stroke="#114177" stroke-width="1.51"/><path d="M675,165L541,213L709,295Z" fill="#2469b9" stroke="#2469b9" stroke-width="1.51"/><path d="M543,41L675,165L711,40Z" fill="#3275c4" stroke="#3275c4" stroke-width="1.51"/><path d="M700,-172L594,-54L717,-91Z" fill="#4581cc" stroke="#4581cc" stroke-width="1.51"/><path d="M552,325L596,460L721,409Z" fill="#1a59a0" stroke="#1a59a0" stroke-width="1.51"/><path d="M541,213L552,325L709,295Z" fill="#2266b4" stroke="#2266b4" stroke-width="1.51"/><path d="M594,-54L543,41L711,40Z" fill="#3b7cca" stroke="#3b7cca" stroke-width="1.51"/><path d="M553,-223L594,-54L700,-172Z" fill="#4e88d1" stroke="#4e88d1" stroke-width="1.51"/><path d="M596,460L545,571L669,597Z" fill="#184d89" stroke="#184d89" stroke-width="1.51"/><path d="M545,571L548,715L669,597Z" fill="#16477f" stroke="#16477f" stroke-width="1.51"/><path d="M543,41L541,213L675,165Z" fill="#3073c2" stroke="#3073c2" stroke-width="1.51"/><path d="M462,199L541,213L543,41Z" fill="#3275c4" stroke="#3275c4" stroke-width="1.51"/><path d="M460,-30L543,41L594,-54Z" fill="#4182cf" stroke="#4182cf" stroke-width="1.51"/><path d="M553,-223L473,-205L594,-54Z" fill="#538cd5" stroke="#538cd5" stroke-width="1.51"/><path d="M473,-205L460,-30L594,-54Z" fill="#4b89d5" stroke="#4b89d5" stroke-width="1.51"/><path d="M552,325L432,473L596,460Z" fill="#1f5ba0" stroke="#1f5ba0" stroke-width="1.51"/><path d="M432,473L487,535L596,460Z" fill="#1f5696" stroke="#1f5696" stroke-width="1.51"/><path d="M487,535L545,571L596,460Z" fill="#1c528f" stroke="#1c528f" stroke-width="1.51"/><path d="M460,-30L467,24L543,41Z" fill="#4182d0" stroke="#4182d0" stroke-width="1.51"/><path d="M467,24L462,199L543,41Z" fill="#397ccb" stroke="#397ccb" stroke-width="1.51"/><path d="M487,535L420,653L545,571Z" fill="#1d4e87" stroke="#1d4e87" stroke-width="1.51"/><path d="M420,653L363,671L548,715Z" fill="#1c4a80" stroke="#1c4a80" stroke-width="1.51"/><path d="M545,571L420,653L548,715Z" fill="#1a4a81" stroke="#1a4a81" stroke-width="1.51"/><path d="M480,283L432,473L552,325Z" fill="#2463ac" stroke="#2463ac" stroke-width="1.51"/><path d="M541,213L480,283L552,325Z" fill="#276ab8" stroke="#276ab8" stroke-width="1.51"/><path d="M462,199L480,283L541,213Z" fill="#2c6fbf" stroke="#2c6fbf" stroke-width="1.51"/><path d="M295,543L420,653L432,473Z" fill="#235691" stroke="#235691" stroke-width="1.51"/><path d="M338,160L462,199L467,24Z" fill="#397dcb" stroke="#397dcb" stroke-width="1.51"/><path d="M312,84L338,160L467,24Z" fill="#3f82d0" stroke="#3f82d0" stroke-width="1.51"/><path d="M354,-177L460,-30L473,-205Z" fill="#5491d9" stroke="#5491d9" stroke-width="1.51"/><path d="M340,312L432,473L480,283Z" fill="#2867b0" stroke="#2867b0" stroke-width="1.51"/><path d="M432,473L420,653L487,535Z" fill="#20538e" stroke="#20538e" stroke-width="1.51"/><path d="M340,312L299,420L432,473Z" fill="#2a65ab" stroke="#2a65ab" stroke-width="1.51"/><path d="M354,-177L295,-97L460,-30Z" fill="#5191db" stroke="#5191db" stroke-width="1.51"/><path d="M462,199L340,312L480,283Z" fill="#2c70be" stroke="#2c70be" stroke-width="1.51"/><path d="M338,160L340,312L462,199Z" fill="#3376c5" stroke="#3376c5" stroke-width="1.51"/><path d="M460,-30L312,84L467,24Z" fill="#4385d2" stroke="#4385d2" stroke-width="1.51"/><path d="M295,-97L312,84L460,-30Z" fill="#498bd7" stroke="#498bd7" stroke-width="1.51"/><path d="M-143,-180L-26,-162L163,-196Z" fill="#70a7ea" stroke="#70a7ea" stroke-width="1.51"/><path d="M295,543L363,671L420,653Z" fill="#225289" stroke="#225289" stroke-width="1.51"/><path d="M299,420L295,543L432,473Z" fill="#285f9f" stroke="#285f9f" stroke-width="1.51"/><path d="M295,-97L231,-73L312,84Z" fill="#4f8fdb" stroke="#4f8fdb" stroke-width="1.51"/><path d="M338,160L174,195L340,312Z" fill="#387ac8" stroke="#387ac8" stroke-width="1.51"/><path d="M174,195L193,320L340,312Z" fill="#3778c4" stroke="#3778c4" stroke-width="1.51"/><path d="M295,543L233,669L363,671Z" fill="#25548b" stroke="#25548b" stroke-width="1.51"/><path d="M163,-196L295,-97L354,-177Z" fill="#5f9ae0" stroke="#5f9ae0" stroke-width="1.51"/><path d="M193,320L299,420L340,312Z" fill="#316db7" stroke="#316db7" stroke-width="1.51"/><path d="M225,528L295,543L299,420Z" fill="#2b5f9e" stroke="#2b5f9e" stroke-width="1.51"/><path d="M231,-73L180,84L312,84Z" fill="#4b8cd8" stroke="#4b8cd8" stroke-width="1.51"/><path d="M312,84L174,195L338,160Z" fill="#3f81cf" stroke="#3f81cf" stroke-width="1.51"/><path d="M225,528L233,669L295,543Z" fill="#295992" stroke="#295992" stroke-width="1.51"/><path d="M163,-196L231,-73L295,-97Z" fill="#5c98e1" stroke="#5c98e1" stroke-width="1.51"/><path d="M205,458L225,528L299,420Z" fill="#2d63a4" stroke="#2d63a4" stroke-width="1.51"/><path d="M180,84L174,195L312,84Z" fill="#4486d3" stroke="#4486d3" stroke-width="1.51"/><path d="M193,320L205,458L299,420Z" fill="#316ab0" stroke="#316ab0" stroke-width="1.51"/><path d="M193,320L89,459L205,458Z" fill="#346cb0" stroke="#346cb0" stroke-width="1.51"/><path d="M77,-71L180,84L231,-73Z" fill="#5493de" stroke="#5493de" stroke-width="1.51"/><path d="M163,-196L77,-71L231,-73Z" fill="#5e9be3" stroke="#5e9be3" stroke-width="1.51"/><path d="M225,528L74,547L233,669Z" fill="#2d5c94" stroke="#2d5c94" stroke-width="1.51"/><path d="M74,547L42,705L233,669Z" fill="#2e5b8f" stroke="#2e5b8f" stroke-width="1.51"/><path d="M205,458L89,459L225,528Z" fill="#3165a4" stroke="#3165a4" stroke-width="1.51"/><path d="M89,459L74,547L225,528Z" fill="#3264a0" stroke="#3264a0" stroke-width="1.51"/><path d="M-26,-162L64,-150L163,-196Z" fill="#69a3e8" stroke="#69a3e8" stroke-width="1.51"/><path d="M64,-150L77,-71L163,-196Z" fill="#649fe6" stroke="#649fe6" stroke-width="1.51"/><path d="M114,164L174,195L180,84Z" fill="#4586d3" stroke="#4586d3" stroke-width="1.51"/><path d="M77,-71L63,84L180,84Z" fill="#5292dd" stroke="#5292dd" stroke-width="1.51"/><path d="M174,195L43,294L193,320Z" fill="#3d7cc8" stroke="#3d7cc8" stroke-width="1.51"/><path d="M43,294L89,459L193,320Z" fill="#3a74ba" stroke="#3a74ba" stroke-width="1.51"/><path d="M114,164L43,294L174,195Z" fill="#4382cf" stroke="#4382cf" stroke-width="1.51"/><path d="M63,84L114,164L180,84Z" fill="#4a8bd8" stroke="#4a8bd8" stroke-width="1.51"/><path d="M-57,683L-160,725L42,705Z" fill="#375e8d" stroke="#375e8d" stroke-width="1.51"/><path d="M43,294L-39,418L89,459Z" fill="#3d73b7" stroke="#3d73b7" stroke-width="1.51"/><path d="M63,84L-57,163L114,164Z" fill="#4d8dd8" stroke="#4d8dd8" stroke-width="1.51"/><path d="M-57,163L43,294L114,164Z" fill="#4886d2" stroke="#4886d2" stroke-width="1.51"/><path d="M-63,-74L-80,61L63,84Z" fill="#5c99e1" stroke="#5c99e1" stroke-width="1.51"/><path d="M-57,683L42,705L74,547Z" fill="#345e91" stroke="#345e91" stroke-width="1.51"/><path d="M-68,561L-57,683L74,547Z" fill="#396297" stroke="#396297" stroke-width="1.51"/><path d="M-63,-74L63,84L77,-71Z" fill="#5b99e2" stroke="#5b99e2" stroke-width="1.51"/><path d="M-39,418L74,547L89,459Z" fill="#396aa9" stroke="#396aa9" stroke-width="1.51"/><path d="M-39,418L-68,561L74,547Z" fill="#3c6aa4" stroke="#3c6aa4" stroke-width="1.51"/><path d="M64,-150L-26,-162L77,-71Z" fill="#66a1e8" stroke="#66a1e8" stroke-width="1.51"/><path d="M-26,-162L-63,-74L77,-71Z" fill="#66a1e8" stroke="#66a1e8" stroke-width="1.51"/><path d="M-60,296L-39,418L43,294Z" fill="#457bc1" stroke="#457bc1" stroke-width="1.51"/><path d="M-57,163L-60,296L43,294Z" fill="#4a85d0" stroke="#4a85d0" stroke-width="1.51"/><path d="M-80,61L-57,163L63,84Z" fill="#5592dc" stroke="#5592dc" stroke-width="1.51"/><path d="M-155,475L-68,561L-39,418Z" fill="#436fa9" stroke="#436fa9" stroke-width="1.51"/><path d="M-60,296L-152,339L-39,418Z" fill="#4a7dbf" stroke="#4a7dbf" stroke-width="1.51"/><path d="M-143,-180L-63,-74L-26,-162Z" fill="#70a7ea" stroke="#70a7ea" stroke-width="1.51"/><path d="M-80,61L-149,93L-57,163Z" fill="#5b95dc" stroke="#5b95dc" stroke-width="1.51"/><path d="M-189,197L-60,296L-57,163Z" fill="#548bd3" stroke="#548bd3" stroke-width="1.51"/><path d="M-68,561L-164,578L-57,683Z" fill="#3f6597" stroke="#3f6597" stroke-width="1.51"/><path d="M-152,339L-155,475L-39,418Z" fill="#4977b6" stroke="#4977b6" stroke-width="1.51"/><path d="M-209,-88L-149,93L-80,61Z" fill="#669ee3" stroke="#669ee3" stroke-width="1.51"/><path d="M-209,-88L-80,61L-63,-74Z" fill="#68a1e6" stroke="#68a1e6" stroke-width="1.51"/><path d="M-189,197L-152,339L-60,296Z" fill="#5287cd" stroke="#5287cd" stroke-width="1.51"/><path d="M-149,93L-189,197L-57,163Z" fill="#5b92d9" stroke="#5b92d9" stroke-width="1.51"/><path d="M-164,578L-160,725L-57,683Z" fill="#3e6392" stroke="#3e6392" stroke-width="1.51"/><path d="M-155,475L-164,578L-68,561Z" fill="#446ca1" stroke="#446ca1" stroke-width="1.51"/><path d="M-143,-180L-209,-88L-63,-74Z" fill="#72a8ea" stroke="#72a8ea" stroke-width="1.51"/><path d="M-189,197L-155,475L-152,339Z" fill="#5281c3" stroke="#5281c3" stroke-width="1.51"/><path d="M-209,-88L-189,197L-149,93Z" fill="#659ce1" stroke="#659ce1" stroke-width="1.51"/><path d="M-189,197L-164,578L-155,475Z" fill="#4d79b6" stroke="#4d79b6" stroke-width="1.51"/><path d="M-164,578L-189,197L-160,725Z" fill="#4971a8" stroke="#4971a8" stroke-width="1.51"/></svg>