<svg xmlns="http://www.w3.org/2000/svg" xmlns:xlink="http://www.w3.org/1999/xlink" xmlns:fi="http://pattern.flaticon.com/" x="0" y="0" width="700" height="350" viewBox="0 0 700 350"><rect x="0px" y="0px" width="100%" height="100%" opacity="1" fill="#5bc3eb"/><defs><g transform="matrix(0.5410699243629744 -0.19675270074411347 0.19675270074411347 0.5410699243629744 -15.396857320198443 -5.985200677039863)" id="L1_5"><path d="M42.899,4.5c-0.465-2.279-2.484-4-4.899-4c-0.552,0-1,0.447-1,1s0.448,1,1,1c1.654,0,3,1.346,3,3s-1.346,3-3,3   c-0.552,0-1,0.447-1,1s0.448,1,1,1c2.414,0,4.434-1.721,4.899-4H56v7H44h-2H30h-2H16h-2H2v-7h14h3c0.552,0,1-0.447,1-1   s-0.448-1-1-1h-1.816c0.414-1.162,1.514-2,2.816-2c1.654,0,3,1.346,3,3s-1.346,3-3,3c-0.552,0-1,0.447-1,1s0.448,1,1,1   c2.757,0,5-2.243,5-5s-2.243-5-5-5c-2.414,0-4.434,1.721-4.899,4H0v9v3v11v2v12v2v14h14h2h12h2h12h2h14v-14v-2v-12v-2v-11v-3v-9   H42.899z M30,15.5h12v12H30V15.5z M42,41.5H30v-12h12V41.5z M16,29.5h12v12H16V29.5z M16,15.5h12v12H16V15.5z M2,16.5v-1h12v12H2   V16.5z M2,29.5h12v12H2V29.5z M2,55.5v-12h12v12H2z M16,55.5v-12h12v12H16z M30,55.5v-12h12v12H30z M56,55.5H44v-12h12V55.5z    M56,41.5H44v-12h12V41.5z M44,27.5v-12h12v1v11H44z" fill="#000000"/><path d="M26,2.5c1.654,0,3,1.346,3,3s-1.346,3-3,3c-0.552,0-1,0.447-1,1s0.448,1,1,1c2.757,0,5-2.243,5-5s-2.243-5-5-5   c-0.552,0-1,0.447-1,1S25.448,2.5,26,2.5z" fill="#000000"/><path d="M32,2.5c1.654,0,3,1.346,3,3s-1.346,3-3,3c-0.552,0-1,0.447-1,1s0.448,1,1,1c2.757,0,5-2.243,5-5s-2.243-5-5-5   c-0.552,0-1,0.447-1,1S31.448,2.5,32,2.5z" fill="#000000"/><path d="M31.293,40.207C31.488,40.402,31.744,40.5,32,40.5s0.512-0.098,0.707-0.293L36,36.914l3.293,3.293   C39.488,40.402,39.744,40.5,40,40.5s0.512-0.098,0.707-0.293c0.391-0.391,0.391-1.023,0-1.414L37.414,35.5l3.293-3.293   c0.391-0.391,0.391-1.023,0-1.414s-1.023-0.391-1.414,0L36,34.086l-3.293-3.293c-0.391-0.391-1.023-0.391-1.414,0   s-0.391,1.023,0,1.414l3.293,3.293l-3.293,3.293C30.902,39.184,30.902,39.816,31.293,40.207z" fill="#000000"/></g><g transform="matrix(-0.5289823809879487 -0.22670674256272302 -0.22670674256272302 0.5289823809879487 169.67067370652015 5.93173084724323)" id="L1_6"><path d="M20,49c-2.206,0-4,1.794-4,4s1.794,4,4,4s4-1.794,4-4S22.206,49,20,49z M20,55c-1.103,0-2-0.897-2-2s0.897-2,2-2   s2,0.897,2,2S21.103,55,20,55z"/><path d="M17,5h4c0.552,0,1-0.447,1-1s-0.448-1-1-1h-4c-0.552,0-1,0.447-1,1S16.448,5,17,5z"/><path d="M24,5h1c0.552,0,1-0.447,1-1s-0.448-1-1-1h-1c-0.552,0-1,0.447-1,1S23.448,5,24,5z"/><path d="M56,12H38V4.405C38,1.977,36.024,0,33.595,0H8.405C5.976,0,4,1.977,4,4.405v51.189C4,58.023,5.976,60,8.405,60h25.189   C36.024,60,38,58.023,38,55.595V33h18V12z M8.405,2h25.189C34.921,2,36,3.079,36,4.405V6H6V4.405C6,3.079,7.079,2,8.405,2z    M33.595,58H8.405C7.079,58,6,56.921,6,55.595V48h30v7.595C36,56.921,34.921,58,33.595,58z M36,46H6V8h30v4H18v21h4v7l9.333-7H36   V46z M54,31H38h-7.333L24,36v-5h-4V14h18h16V31z"/><path d="M25,21h10c0.552,0,1-0.447,1-1s-0.448-1-1-1H25c-0.552,0-1,0.447-1,1S24.448,21,25,21z"/><path d="M24,25c0,0.553,0.448,1,1,1h24c0.552,0,1-0.447,1-1s-0.448-1-1-1H25C24.448,24,24,24.447,24,25z"/></g><g transform="matrix(0.6108336110746532 0.1576344791249004 -0.1576344791249004 0.6108336110746532 98.40410470653029 89.94615247525093)"><path d="M14,36.182h14v-10H14V36.182z M16,34.182v-3h10v3H16z M26,28.182v1H16v-1H26z"/><path d="M14,40.182v12h14v-12H14z M20,42.182v3h-4v-3H20z M16,47.182h4v3h-4V47.182z M22,50.182v-3h4v3H22z M26,45.182h-4v-3h4   V45.182z"/><path d="M32,36.182h14v-10H32V36.182z M34,34.182v-1h10v1H34z M44,28.182v3H34v-3H44z"/><path d="M59,48.182c-0.553,0-1,0.448-1,1v1h-1v-1c0-0.552-0.447-1-1-1s-1,0.448-1,1v1h-1V29.978   c0.521,0.234,1.073,0.363,1.626,0.363c1.073,0,2.139-0.436,2.927-1.284c0.76-0.818,1.145-1.925,1.057-3.038   c-0.089-1.112-0.644-2.145-1.522-2.833L32.722,3.345L30,0.818L27.343,3.29L1.913,23.186c-0.879,0.688-1.434,1.721-1.522,2.833   c-0.088,1.113,0.297,2.22,1.057,3.038c1.194,1.286,3.021,1.61,4.553,0.922v20.204H5v-1c0-0.552-0.447-1-1-1s-1,0.448-1,1v1H2v-1   c0-0.552-0.447-1-1-1s-1,0.448-1,1v9c0,0.552,0.447,1,1,1s1-0.448,1-1v-1h1v1c0,0.552,0.447,1,1,1s1-0.448,1-1v-1h1v2h26h14h8v-2h1   v1c0,0.552,0.447,1,1,1s1-0.448,1-1v-1h1v1c0,0.552,0.447,1,1,1s1-0.448,1-1v-9C60,48.63,59.553,48.182,59,48.182z M2.912,27.695   c-0.385-0.415-0.572-0.954-0.527-1.518c0.045-0.564,0.314-1.067,0.761-1.416L28.64,4.811l1.361-1.265l1.424,1.319l25.43,19.896   c0.446,0.349,0.716,0.852,0.761,1.416c0.045,0.564-0.143,1.104-0.527,1.518c-0.708,0.762-1.861,0.858-2.686,0.223L54,27.608v0   l-24-18.5l-23.61,18.2l-0.001,0.001l-0.791,0.609C4.772,28.553,3.62,28.457,2.912,27.695z M2,55.182v-3h1v3H2z M5,55.182v-3h1v3H5z    M34,57.182v-15h10v15H34z M52,57.182h-6v-17H32v17H8V28.591l22-16.959l22,16.959V57.182z M54,55.182v-3h1v3H54z M57,55.182v-3h1v3   H57z"/></g><g transform="matrix(0.5267626263163256 -0.30496783276449874 0.30496783276449874 0.5267626263163256 223.37500782548 93.23333512923392)" id="L1_7"><path d="M14,24.138c3.071,0,5.569-2.498,5.569-5.568C19.569,15.498,17.071,13,14,13s-5.569,2.498-5.569,5.569   C8.431,21.64,10.929,24.138,14,24.138z M14,15c1.968,0,3.569,1.602,3.569,3.569S15.968,22.138,14,22.138s-3.569-1.601-3.569-3.568   S12.032,15,14,15z"/><path d="M1,0v40v12h50V40V0H1z M3,2h46v26.727l-10.324-9.464c-0.196-0.179-0.454-0.268-0.72-0.262   c-0.265,0.012-0.515,0.129-0.694,0.325l-9.794,10.727l-4.743-4.743c-0.374-0.373-0.972-0.392-1.368-0.044L4.622,40H3V2z M49,50H3   v-8h46V50z M7.649,40l14.324-12.611l10.302,10.301c0.391,0.391,1.023,0.391,1.414,0s0.391-1.023,0-1.414l-4.807-4.807l9.181-10.054   L49,31.44V40H7.649z"/></g><g transform="matrix(-0.6023502196270544 0.07856741949475167 0.07856741949475167 0.6023502196270544 306.14213703408365 218.6152251742227)" id="L1_8"><path d="M53.188,23.518l-3.128-0.602c-1.842-0.354-3.351-1.607-4.035-3.354c-0.686-1.745-0.433-3.69,0.677-5.203l1.964-2.679   c0.292-0.397,0.249-0.949-0.1-1.298l-4.242-4.242c-0.339-0.339-0.871-0.39-1.268-0.121l-2.638,1.786   c-1.552,1.052-3.505,1.231-5.224,0.482c-1.719-0.75-2.916-2.305-3.201-4.158l-0.505-3.282C31.413,0.36,30.994,0,30.5,0h-6   c-0.479,0-0.892,0.34-0.982,0.812l-0.777,4.04c-0.347,1.801-1.565,3.296-3.26,3.997c-1.694,0.704-3.613,0.507-5.131-0.521   L10.944,6.02c-0.397-0.268-0.929-0.218-1.268,0.121l-4.243,4.242c-0.349,0.349-0.391,0.9-0.1,1.299l1.964,2.679   c1.109,1.512,1.362,3.457,0.677,5.203c-0.686,1.745-2.194,2.999-4.036,3.353l-3.128,0.602C0.34,23.608,0,24.021,0,24.5v6   c0,0.493,0.36,0.913,0.848,0.988l3.283,0.505c1.853,0.285,3.408,1.481,4.157,3.2c0.75,1.72,0.57,3.673-0.482,5.226L6.02,43.057   c-0.269,0.396-0.218,0.929,0.121,1.268l4.242,4.242c0.349,0.348,0.899,0.393,1.298,0.1l2.679-1.964   c1.512-1.109,3.457-1.365,5.202-0.677c1.746,0.685,3,2.193,3.354,4.035l0.602,3.128C23.608,53.66,24.021,54,24.5,54h6   c0.494,0,0.914-0.36,0.988-0.848l0.355-2.309c0.292-1.896,1.523-3.465,3.294-4.198c1.771-0.73,3.751-0.495,5.297,0.64l1.884,1.381   c0.399,0.293,0.95,0.248,1.298-0.1l4.242-4.242c0.339-0.339,0.39-0.871,0.121-1.268l-1.786-2.638   c-1.052-1.553-1.232-3.506-0.482-5.225c0.75-1.72,2.304-2.916,4.158-3.201l3.282-0.505C53.64,31.413,54,30.993,54,30.5v-6   C54,24.021,53.66,23.608,53.188,23.518z M52,29.642l-2.435,0.375c-2.535,0.39-4.661,2.026-5.687,4.378   c-1.025,2.351-0.779,5.022,0.66,7.146l1.323,1.954l-3.052,3.052l-1.192-0.874c-2.115-1.551-4.822-1.875-7.246-0.874   c-2.422,1.004-4.107,3.149-4.505,5.741L29.642,52h-4.316l-0.446-2.316c-0.484-2.52-2.2-4.583-4.588-5.521   c-2.385-0.937-5.047-0.589-7.115,0.926l-1.987,1.457l-3.052-3.052l1.324-1.954c1.438-2.123,1.685-4.795,0.659-7.146   c-1.026-2.351-3.152-3.987-5.687-4.377L2,29.642v-4.315l2.317-0.445c2.519-0.484,4.582-2.199,5.52-4.587   c0.937-2.388,0.591-5.048-0.926-7.117L7.454,11.19l3.052-3.052l2.723,1.845c2.077,1.407,4.701,1.675,7.018,0.713   c2.317-0.96,3.984-3.004,4.458-5.468L25.326,2h4.316l0.375,2.435c0.39,2.535,2.027,4.661,4.378,5.687   c2.351,1.026,5.022,0.778,7.146-0.659l1.954-1.323l3.052,3.052l-1.457,1.986c-1.517,2.068-1.863,4.729-0.925,7.117   c0.937,2.388,3,4.103,5.52,4.587L52,25.326V29.642z"/><path d="M27.5,17C21.71,17,17,21.71,17,27.5S21.71,38,27.5,38S38,33.29,38,27.5S33.29,17,27.5,17z M27.5,36   c-4.687,0-8.5-3.813-8.5-8.5s3.813-8.5,8.5-8.5s8.5,3.813,8.5,8.5S32.187,36,27.5,36z"/><path d="M27.5,22c-3.033,0-5.5,2.468-5.5,5.5s2.467,5.5,5.5,5.5s5.5-2.468,5.5-5.5S30.533,22,27.5,22z M27.5,31   c-1.93,0-3.5-1.57-3.5-3.5s1.57-3.5,3.5-3.5s3.5,1.57,3.5,3.5S29.43,31,27.5,31z"/></g><path d="M35,0C23.849,0,14.43,2.588,11.215,6.475C4.669,8.077,0.884,10.775,0.146,13.51C0.062,13.657,0,13.818,0,14v0.5V26v0.5V27  v11v0.5V39v12c0,0.162,0.043,0.315,0.117,0.451C1.298,56.346,11.864,60,25,60c11.24,0,20.579-2.68,23.786-6.518  c6.359-1.546,10.366-4.076,11.09-7C59.955,46.34,60,46.175,60,46V34v-0.5V22v-0.5v-12C60,4.895,51.238,0,35,0z M47.805,39.348  c-0.04,0.099-0.089,0.198-0.143,0.297c-0.067,0.123-0.142,0.246-0.231,0.369c-0.066,0.093-0.141,0.185-0.219,0.277  c-0.111,0.131-0.229,0.262-0.363,0.392c-0.081,0.079-0.17,0.157-0.26,0.236c-0.164,0.143-0.335,0.285-0.526,0.426  c-0.082,0.061-0.17,0.12-0.257,0.18c-0.226,0.156-0.462,0.311-0.721,0.463c-0.068,0.041-0.141,0.08-0.212,0.12  c-0.298,0.168-0.609,0.335-0.945,0.497c-0.043,0.021-0.088,0.041-0.132,0.061c-0.375,0.177-0.767,0.351-1.186,0.519  c-0.012,0.005-0.024,0.009-0.036,0.014c-2.271,0.907-5.176,1.67-8.561,2.17c-0.017,0.002-0.034,0.004-0.051,0.007  c-0.658,0.097-1.333,0.183-2.026,0.259c-0.113,0.012-0.232,0.02-0.346,0.032c-0.605,0.063-1.217,0.121-1.847,0.167  c-0.288,0.021-0.59,0.031-0.883,0.049c-0.474,0.028-0.943,0.059-1.429,0.076C26.637,45.984,25.827,46,25,46  s-1.637-0.016-2.432-0.044c-0.486-0.017-0.955-0.049-1.429-0.076c-0.293-0.017-0.595-0.028-0.883-0.049  c-0.63-0.046-1.242-0.104-1.847-0.167c-0.114-0.012-0.233-0.02-0.346-0.032c-0.693-0.076-1.368-0.163-2.026-0.259  c-0.017-0.002-0.034-0.004-0.051-0.007c-3.385-0.5-6.29-1.263-8.561-2.17c-0.012-0.004-0.024-0.009-0.036-0.014  c-0.419-0.168-0.812-0.342-1.186-0.519c-0.043-0.021-0.089-0.041-0.132-0.061c-0.336-0.162-0.647-0.328-0.945-0.497  c-0.07-0.04-0.144-0.079-0.212-0.12c-0.259-0.152-0.495-0.307-0.721-0.463c-0.086-0.06-0.175-0.119-0.257-0.18  c-0.191-0.141-0.362-0.283-0.526-0.426c-0.089-0.078-0.179-0.156-0.26-0.236c-0.134-0.13-0.252-0.26-0.363-0.392  c-0.078-0.092-0.153-0.184-0.219-0.277c-0.088-0.123-0.163-0.246-0.231-0.369c-0.054-0.099-0.102-0.198-0.143-0.297  c-0.049-0.121-0.088-0.242-0.116-0.363C2.041,38.823,2,38.661,2,38.5c0-0.113,0.013-0.226,0.031-0.338  C2.056,38.011,2.042,37.86,2,37.717v-7.424c0.028,0.026,0.063,0.051,0.092,0.077c0.218,0.192,0.44,0.383,0.69,0.567  C6.549,33.786,14.082,36,25,36c10.872,0,18.386-2.196,22.169-5.028c0.302-0.22,0.574-0.447,0.83-0.678L48,30.293v7.424  c-0.042,0.143-0.056,0.294-0.031,0.445C47.987,38.274,48,38.387,48,38.5c0,0.161-0.041,0.323-0.079,0.485  C47.892,39.106,47.854,39.227,47.805,39.348z M2.601,18.797c0.3,0.236,0.624,0.469,0.975,0.696c0.073,0.047,0.155,0.093,0.231,0.14  c0.294,0.183,0.605,0.362,0.932,0.538c0.121,0.065,0.242,0.129,0.367,0.193c0.365,0.186,0.748,0.367,1.151,0.542  c0.066,0.029,0.126,0.059,0.193,0.087c0.469,0.199,0.967,0.389,1.485,0.573c0.143,0.051,0.293,0.099,0.44,0.149  c0.412,0.139,0.838,0.272,1.279,0.401c0.159,0.046,0.315,0.094,0.478,0.138c0.585,0.162,1.189,0.316,1.823,0.458  c0.087,0.02,0.181,0.036,0.269,0.055c0.559,0.122,1.139,0.235,1.735,0.341c0.202,0.036,0.407,0.07,0.613,0.104  c0.567,0.093,1.151,0.178,1.75,0.256c0.154,0.02,0.301,0.043,0.457,0.062c0.744,0.09,1.514,0.167,2.305,0.233  c0.195,0.016,0.398,0.028,0.596,0.042c0.633,0.046,1.28,0.084,1.942,0.114c0.241,0.011,0.481,0.022,0.727,0.031  C23.212,23.979,24.09,24,25,24s1.788-0.021,2.65-0.05c0.245-0.009,0.485-0.02,0.727-0.031c0.662-0.03,1.309-0.068,1.942-0.114  c0.198-0.015,0.4-0.026,0.596-0.042c0.791-0.065,1.561-0.143,2.305-0.233c0.156-0.019,0.303-0.042,0.457-0.062  c0.599-0.078,1.182-0.163,1.75-0.256c0.206-0.034,0.411-0.068,0.613-0.104c0.596-0.106,1.176-0.219,1.735-0.341  c0.088-0.019,0.182-0.036,0.269-0.055c0.634-0.142,1.238-0.297,1.823-0.458c0.163-0.045,0.319-0.092,0.478-0.138  c0.441-0.129,0.867-0.262,1.279-0.401c0.147-0.05,0.297-0.098,0.44-0.149c0.518-0.184,1.017-0.374,1.485-0.573  c0.067-0.028,0.127-0.058,0.193-0.087c0.403-0.176,0.786-0.356,1.151-0.542c0.125-0.064,0.247-0.128,0.367-0.193  c0.327-0.175,0.638-0.354,0.932-0.538c0.076-0.047,0.158-0.093,0.231-0.14c0.351-0.227,0.675-0.459,0.975-0.696  c0.075-0.06,0.142-0.12,0.215-0.18c0.13-0.108,0.267-0.215,0.387-0.324v7.424c-0.042,0.143-0.056,0.294-0.031,0.445  C47.987,26.274,48,26.387,48,26.5c0,0.161-0.041,0.323-0.079,0.485c-0.028,0.121-0.067,0.241-0.116,0.363  c-0.04,0.099-0.089,0.198-0.143,0.297c-0.067,0.123-0.142,0.246-0.231,0.369c-0.066,0.093-0.141,0.185-0.219,0.277  c-0.111,0.131-0.229,0.262-0.363,0.392c-0.081,0.079-0.17,0.157-0.26,0.236c-0.164,0.143-0.335,0.285-0.526,0.426  c-0.082,0.061-0.17,0.12-0.257,0.18c-0.226,0.156-0.462,0.311-0.721,0.463c-0.068,0.041-0.141,0.08-0.212,0.12  c-0.298,0.168-0.609,0.335-0.945,0.497c-0.043,0.021-0.088,0.041-0.132,0.061c-0.375,0.177-0.767,0.351-1.186,0.519  c-0.012,0.005-0.024,0.009-0.036,0.014c-2.271,0.907-5.176,1.67-8.561,2.17c-0.017,0.002-0.034,0.004-0.051,0.007  c-0.658,0.097-1.333,0.183-2.026,0.259c-0.113,0.012-0.232,0.02-0.346,0.032c-0.605,0.063-1.217,0.121-1.847,0.167  c-0.288,0.021-0.59,0.031-0.883,0.049c-0.474,0.028-0.943,0.059-1.429,0.076C26.637,33.984,25.827,34,25,34  s-1.637-0.016-2.432-0.044c-0.486-0.017-0.955-0.049-1.429-0.076c-0.293-0.017-0.595-0.028-0.883-0.049  c-0.63-0.046-1.242-0.104-1.847-0.167c-0.114-0.012-0.233-0.02-0.346-0.032c-0.693-0.076-1.368-0.163-2.026-0.259  c-0.017-0.002-0.034-0.004-0.051-0.007c-3.385-0.5-6.29-1.263-8.561-2.17c-0.012-0.004-0.024-0.009-0.036-0.014  c-0.419-0.168-0.812-0.342-1.186-0.519c-0.043-0.021-0.089-0.041-0.132-0.061c-0.336-0.162-0.647-0.328-0.945-0.497  c-0.07-0.04-0.144-0.079-0.212-0.12c-0.259-0.152-0.495-0.307-0.721-0.463c-0.086-0.06-0.175-0.119-0.257-0.18  c-0.191-0.141-0.362-0.283-0.526-0.426c-0.089-0.078-0.179-0.156-0.26-0.236c-0.134-0.13-0.252-0.26-0.363-0.392  c-0.078-0.092-0.153-0.184-0.219-0.277c-0.088-0.123-0.163-0.246-0.231-0.369c-0.054-0.099-0.102-0.198-0.143-0.297  c-0.049-0.121-0.088-0.242-0.116-0.363C2.041,26.823,2,26.661,2,26.5c0-0.113,0.013-0.226,0.031-0.338  C2.056,26.011,2.042,25.86,2,25.717v-7.424c0.12,0.109,0.257,0.216,0.387,0.324C2.459,18.677,2.526,18.737,2.601,18.797z M50,39.09  V39v-0.5V38v-8.828c0.043-0.012,0.083-0.025,0.126-0.037c0.4-0.112,0.79-0.227,1.168-0.346c0.004-0.001,0.009-0.003,0.013-0.004  c2.961-0.936,5.22-2.099,6.693-3.427V33.5c0,0.116-0.015,0.232-0.035,0.349c-0.016,0.096-0.043,0.192-0.072,0.288  c-0.009,0.028-0.015,0.056-0.025,0.085c-0.036,0.105-0.081,0.21-0.133,0.315c-0.006,0.013-0.013,0.026-0.019,0.039  c-0.828,1.615-3.465,3.202-7.27,4.379C50.299,39,50.151,39.046,50,39.09z M58,13.347V21.5c0,0.116-0.015,0.232-0.035,0.349  c-0.016,0.096-0.043,0.192-0.072,0.288c-0.009,0.028-0.015,0.056-0.025,0.085c-0.036,0.105-0.081,0.21-0.133,0.315  c-0.006,0.013-0.013,0.026-0.019,0.039c-0.828,1.615-3.465,3.202-7.27,4.379C50.299,27,50.151,27.046,50,27.09V27v-0.5V26v-8.828  c0.084-0.023,0.161-0.049,0.244-0.072c0.23-0.065,0.454-0.133,0.677-0.2c0.189-0.057,0.378-0.115,0.561-0.174  c0.228-0.074,0.448-0.15,0.667-0.227c0.166-0.058,0.334-0.115,0.495-0.174c0.231-0.085,0.452-0.174,0.673-0.262  c0.137-0.055,0.279-0.108,0.412-0.164c0.256-0.108,0.5-0.219,0.742-0.332c0.087-0.04,0.179-0.079,0.263-0.119  c0.324-0.156,0.635-0.316,0.931-0.479c0.031-0.017,0.057-0.035,0.088-0.052c0.261-0.146,0.513-0.295,0.751-0.447  c0.084-0.054,0.159-0.109,0.24-0.163c0.176-0.117,0.35-0.235,0.512-0.356c0.089-0.066,0.169-0.134,0.253-0.201  c0.141-0.112,0.282-0.224,0.411-0.338C57.946,13.389,57.976,13.369,58,13.347z M35,2c13.555,0,23,3.952,23,7.5  c0,0.133-0.014,0.266-0.04,0.399c-0.008,0.044-0.025,0.087-0.036,0.131c-0.023,0.09-0.045,0.179-0.079,0.269  c-0.02,0.052-0.047,0.104-0.07,0.156c-0.037,0.081-0.073,0.162-0.119,0.243c-0.031,0.055-0.068,0.11-0.103,0.165  c-0.05,0.078-0.1,0.156-0.157,0.233c-0.042,0.056-0.089,0.112-0.135,0.167c-0.063,0.076-0.127,0.152-0.197,0.227  c-0.052,0.056-0.108,0.112-0.164,0.168c-0.075,0.074-0.153,0.149-0.236,0.223c-0.062,0.055-0.126,0.111-0.192,0.166  c-0.088,0.073-0.18,0.146-0.275,0.219c-0.071,0.054-0.143,0.109-0.218,0.163c-0.101,0.073-0.208,0.145-0.316,0.217  c-0.079,0.053-0.158,0.105-0.241,0.158c-0.116,0.073-0.237,0.145-0.36,0.216c-0.085,0.05-0.169,0.1-0.258,0.149  c-0.132,0.073-0.272,0.146-0.412,0.219c-0.089,0.046-0.175,0.093-0.267,0.138c-0.153,0.076-0.315,0.15-0.476,0.225  c-0.088,0.04-0.171,0.081-0.261,0.121c-0.213,0.094-0.434,0.187-0.659,0.278c-0.045,0.018-0.086,0.037-0.131,0.055  c-0.274,0.109-0.558,0.216-0.85,0.321c-0.081,0.029-0.168,0.057-0.25,0.085c-0.214,0.074-0.428,0.148-0.651,0.22  c-0.116,0.038-0.238,0.073-0.357,0.11c-0.161,0.05-0.322,0.099-0.487,0.147V14.5V14c0-0.113-0.027-0.22-0.065-0.322  c-0.014-0.04-0.027-0.078-0.046-0.115c-0.002-0.004-0.003-0.01-0.006-0.014c-0.284-1.177-1.122-2.279-2.396-3.279  c-0.007-0.006-0.013-0.012-0.021-0.017c-0.182-0.143-0.385-0.28-0.585-0.418c-3.547-2.511-10.075-4.479-19.335-4.786  C26.71,5.018,25.861,5,25,5c-0.854,0-1.703,0.017-2.545,0.048c-2.498,0.083-4.787,0.291-6.884,0.594C19.445,3.612,26.273,2,35,2z   M13.493,8.061c0.252-0.05,0.512-0.094,0.769-0.141c0.332-0.061,0.666-0.12,1.009-0.175c0.299-0.048,0.601-0.093,0.905-0.137  c0.337-0.048,0.681-0.093,1.028-0.136c0.294-0.037,0.587-0.075,0.885-0.107c0.599-0.065,1.209-0.122,1.833-0.17  c0.237-0.019,0.478-0.031,0.717-0.047c0.484-0.032,0.972-0.06,1.47-0.081c0.235-0.01,0.47-0.02,0.707-0.028  C23.534,7.017,24.258,7,25,7c0.827,0,1.637,0.016,2.433,0.044c0.48,0.017,0.943,0.048,1.411,0.075c0.3,0.017,0.607,0.029,0.902,0.05  c0.621,0.045,1.224,0.103,1.821,0.164c0.123,0.012,0.252,0.021,0.374,0.035c0.677,0.074,1.336,0.159,1.98,0.253  c0.033,0.005,0.068,0.009,0.1,0.013c3.369,0.498,6.261,1.256,8.526,2.157c0.025,0.01,0.052,0.02,0.077,0.03  c0.406,0.163,0.786,0.332,1.149,0.503c0.056,0.026,0.114,0.052,0.169,0.078c0.325,0.157,0.625,0.318,0.914,0.48  c0.08,0.045,0.164,0.09,0.241,0.136c0.249,0.147,0.477,0.296,0.696,0.447c0.095,0.065,0.191,0.131,0.28,0.197  c0.184,0.136,0.349,0.273,0.507,0.411c0.095,0.083,0.19,0.166,0.276,0.25c0.129,0.126,0.244,0.252,0.351,0.379  c0.081,0.096,0.16,0.192,0.228,0.289c0.086,0.119,0.159,0.239,0.225,0.359c0.056,0.102,0.105,0.203,0.146,0.304  c0.048,0.119,0.086,0.239,0.114,0.358C47.959,14.176,48,14.338,48,14.5c0,3.548-9.445,7.5-23,7.5S2,18.048,2,14.5  C2,12.08,6.399,9.475,13.493,8.061z M25,58c-13.036,0-22.401-3.703-22.968-7.162C2.024,50.793,2.014,50.749,2,50.707v-8.414  c0.028,0.026,0.063,0.051,0.092,0.077c0.218,0.192,0.44,0.383,0.69,0.567C6.549,45.786,14.082,48,25,48  c10.872,0,18.386-2.196,22.169-5.028c0.302-0.22,0.574-0.447,0.83-0.678L48,42.293v8.41c-0.014,0.044-0.024,0.089-0.032,0.135  c-0.033,0.204-0.103,0.409-0.196,0.613c-0.036,0.079-0.092,0.158-0.137,0.237C45.826,54.877,36.971,58,25,58z M57.968,45.838  c-0.317,1.941-3.314,3.891-7.972,5.255C49.999,51.063,50,51.031,50,51v-9.828c0.043-0.012,0.083-0.025,0.126-0.037  c0.4-0.112,0.79-0.227,1.168-0.346c0.004-0.001,0.009-0.003,0.013-0.004c2.961-0.936,5.22-2.099,6.693-3.427v8.346  C57.986,45.747,57.976,45.792,57.968,45.838z" transform="matrix(0.40069383390194396 0.23570226215367693 -0.23570226215367693 0.40069383390194396 4.05025284755199 135.90811711833138)" id="L1_9"/><g transform="matrix(0.5495951175689697 0 0 0.5495951175689697 188.61133575439453 280.61133575439453)" id="L1_11"><path d="M35.31,5.042c-0.532-0.155-1.085,0.15-1.24,0.68s0.149,1.085,0.68,1.24C44.906,9.932,52,19.405,52,30   c0,13.233-10.767,24-24,24S4,43.233,4,30C4,19.392,11.105,9.915,21.279,6.953c0.53-0.154,0.835-0.709,0.681-1.239   c-0.153-0.53-0.708-0.839-1.239-0.681C9.698,8.241,2,18.508,2,30c0,14.337,11.663,26,26,26s26-11.663,26-26   C54,18.522,46.314,8.26,35.31,5.042z"/><path d="M28,27c0.553,0,1-0.447,1-1V1c0-0.553-0.447-1-1-1s-1,0.447-1,1v25C27,26.553,27.447,27,28,27z"/></g><path d="M50.688,48.222C55.232,43.101,58,36.369,58,29c0-7.667-2.996-14.643-7.872-19.834c0,0,0-0.001,0-0.001  c-0.004-0.006-0.01-0.008-0.013-0.013c-5.079-5.399-12.195-8.855-20.11-9.126l-0.001-0.001L29.439,0.01C29.293,0.005,29.147,0,29,0  s-0.293,0.005-0.439,0.01l-0.563,0.015l-0.001,0.001c-7.915,0.271-15.031,3.727-20.11,9.126c-0.004,0.005-0.01,0.007-0.013,0.013  c0,0,0,0.001-0.001,0.002C2.996,14.357,0,21.333,0,29c0,7.369,2.768,14.101,7.312,19.222c0.006,0.009,0.006,0.019,0.013,0.028  c0.018,0.025,0.044,0.037,0.063,0.06c5.106,5.708,12.432,9.385,20.608,9.665l0.001,0.001l0.563,0.015C28.707,57.995,28.853,58,29,58  s0.293-0.005,0.439-0.01l0.563-0.015l0.001-0.001c8.185-0.281,15.519-3.965,20.625-9.685c0.013-0.017,0.034-0.022,0.046-0.04  C50.682,48.241,50.682,48.231,50.688,48.222z M2.025,30h12.003c0.113,4.239,0.941,8.358,2.415,12.217  c-2.844,1.029-5.563,2.409-8.111,4.131C4.585,41.891,2.253,36.21,2.025,30z M8.878,11.023c2.488,1.618,5.137,2.914,7.9,3.882  C15.086,19.012,14.15,23.44,14.028,28H2.025C2.264,21.493,4.812,15.568,8.878,11.023z M55.975,28H43.972  c-0.122-4.56-1.058-8.988-2.75-13.095c2.763-0.968,5.412-2.264,7.9-3.882C53.188,15.568,55.736,21.493,55.975,28z M28,14.963  c-2.891-0.082-5.729-0.513-8.471-1.283C21.556,9.522,24.418,5.769,28,2.644V14.963z M28,16.963V28H16.028  c0.123-4.348,1.035-8.565,2.666-12.475C21.7,16.396,24.821,16.878,28,16.963z M30,16.963c3.179-0.085,6.3-0.566,9.307-1.438  c1.631,3.91,2.543,8.127,2.666,12.475H30V16.963z M30,14.963V2.644c3.582,3.125,6.444,6.878,8.471,11.036  C35.729,14.45,32.891,14.881,30,14.963z M40.409,13.072c-1.921-4.025-4.587-7.692-7.888-10.835  c5.856,0.766,11.125,3.414,15.183,7.318C45.4,11.017,42.956,12.193,40.409,13.072z M17.591,13.072  c-2.547-0.879-4.991-2.055-7.294-3.517c4.057-3.904,9.327-6.552,15.183-7.318C22.178,5.38,19.512,9.047,17.591,13.072z M16.028,30  H28v10.038c-3.307,0.088-6.547,0.604-9.661,1.541C16.932,37.924,16.141,34.019,16.028,30z M28,42.038v13.318  c-3.834-3.345-6.84-7.409-8.884-11.917C21.983,42.594,24.961,42.124,28,42.038z M30,55.356V42.038  c3.039,0.085,6.017,0.556,8.884,1.4C36.84,47.947,33.834,52.011,30,55.356z M30,40.038V30h11.972  c-0.113,4.019-0.904,7.924-2.312,11.58C36.547,40.642,33.307,40.126,30,40.038z M43.972,30h12.003  c-0.228,6.21-2.559,11.891-6.307,16.348c-2.548-1.722-5.267-3.102-8.111-4.131C43.032,38.358,43.859,34.239,43.972,30z   M9.691,47.846c2.366-1.572,4.885-2.836,7.517-3.781c1.945,4.36,4.737,8.333,8.271,11.698C19.328,54.958,13.823,52.078,9.691,47.846  z M32.521,55.763c3.534-3.364,6.326-7.337,8.271-11.698c2.632,0.945,5.15,2.209,7.517,3.781  C44.177,52.078,38.672,54.958,32.521,55.763z" transform="matrix(0.610062301158905 0 0 0.610062301158905 36.30819207429886 253.30819207429886)" id="L1_12"/><g transform="matrix(0.4891737981864038 -0.10870528786699589 0.10870528786699589 0.4891737981864038 8.857266107069684 70.72735165188746)" id="L1_13"><path d="M27,8c-9.374,0-17,7.626-17,17c0,7.112,4.391,13.412,11,15.9V50c0,0.553,0.447,1,1,1h1v2c0,0.553,0.447,1,1,1h6   c0.553,0,1-0.447,1-1v-2h1c0.553,0,1-0.447,1-1v-9.1c6.609-2.488,11-8.788,11-15.9C44,15.626,36.374,8,27,8z M30,49   c-0.553,0-1,0.447-1,1v2h-4v-2c0-0.553-0.447-1-1-1h-1v-5h8v5H30z M31.688,39.242C31.277,39.377,31,39.761,31,40.192V42h-8v-1.808   c0-0.432-0.277-0.815-0.688-0.95C16.145,37.214,12,31.49,12,25c0-8.271,6.729-15,15-15s15,6.729,15,15   C42,31.49,37.855,37.214,31.688,39.242z"/><path d="M27,6c0.553,0,1-0.447,1-1V1c0-0.553-0.447-1-1-1s-1,0.447-1,1v4C26,5.553,26.447,6,27,6z"/><path d="M51,24h-4c-0.553,0-1,0.447-1,1s0.447,1,1,1h4c0.553,0,1-0.447,1-1S51.553,24,51,24z"/><path d="M7,24H3c-0.553,0-1,0.447-1,1s0.447,1,1,1h4c0.553,0,1-0.447,1-1S7.553,24,7,24z"/><path d="M43.264,7.322l-2.828,2.828c-0.391,0.391-0.391,1.023,0,1.414c0.195,0.195,0.451,0.293,0.707,0.293   s0.512-0.098,0.707-0.293l2.828-2.828c0.391-0.391,0.391-1.023,0-1.414S43.654,6.932,43.264,7.322z"/><path d="M12.15,38.436l-2.828,2.828c-0.391,0.391-0.391,1.023,0,1.414c0.195,0.195,0.451,0.293,0.707,0.293   s0.512-0.098,0.707-0.293l2.828-2.828c0.391-0.391,0.391-1.023,0-1.414S12.541,38.045,12.15,38.436z"/><path d="M41.85,38.436c-0.391-0.391-1.023-0.391-1.414,0s-0.391,1.023,0,1.414l2.828,2.828c0.195,0.195,0.451,0.293,0.707,0.293   s0.512-0.098,0.707-0.293c0.391-0.391,0.391-1.023,0-1.414L41.85,38.436z"/><path d="M12.15,11.564c0.195,0.195,0.451,0.293,0.707,0.293s0.512-0.098,0.707-0.293c0.391-0.391,0.391-1.023,0-1.414l-2.828-2.828   c-0.391-0.391-1.023-0.391-1.414,0s-0.391,1.023,0,1.414L12.15,11.564z"/><path d="M27,13c-6.617,0-12,5.383-12,12c0,0.553,0.447,1,1,1s1-0.447,1-1c0-5.514,4.486-10,10-10c0.553,0,1-0.447,1-1   S27.553,13,27,13z"/></g><g transform="matrix(0.5838783383369446 0 0 0.5838783383369446 103.69498100876808 299.6949810087681)" id="L1_14"><path d="M39.914,0H37.5h-28h-9v49h7h33h8V8.586L39.914,0z M35.5,2v14h-24V2H35.5z M9.5,47V28h29v19H9.5z M46.5,47h-6V26h-33v21h-5   V2h7v16h28V2h1.586L46.5,9.414V47z"/><path d="M13.5,33h7c0.553,0,1-0.447,1-1s-0.447-1-1-1h-7c-0.553,0-1,0.447-1,1S12.947,33,13.5,33z"/><path d="M23.5,35h-10c-0.553,0-1,0.447-1,1s0.447,1,1,1h10c0.553,0,1-0.447,1-1S24.053,35,23.5,35z"/><path d="M25.79,35.29c-0.181,0.189-0.29,0.45-0.29,0.71s0.109,0.52,0.29,0.71C25.979,36.89,26.229,37,26.5,37   c0.26,0,0.52-0.11,0.71-0.29c0.18-0.19,0.29-0.45,0.29-0.71s-0.11-0.521-0.29-0.71C26.84,34.92,26.16,34.92,25.79,35.29z"/><path d="M33.5,4h-6v10h6V4z M31.5,12h-2V6h2V12z"/></g><path d="M59,28h-2.18c-0.951-5.666-5.85-10-11.748-10c-5.822,0-10.696,4.119-11.825,9.579c-0.971-0.814-2.079-1.246-3.247-1.246  c-1.167,0-2.274,0.432-3.245,1.245C25.639,22.118,20.825,18,15.072,18C8.756,18,3.565,22.851,3.051,29H1c-0.553,0-1,0.448-1,1  s0.447,1,1,1h2.051c0.514,6.149,5.705,11,12.021,11c6.467,0,11.736-5.207,11.911-11.671c0.853-1.285,1.915-1.996,3.017-1.996  c1.102,0,2.164,0.712,3.017,1.996C33.195,36.793,38.528,42,45.072,42C51.649,42,57,36.617,57,30h2c0.553,0,1-0.448,1-1  S59.553,28,59,28z M15.072,40C9.519,40,5,35.514,5,30s4.519-10,10.072-10C20.64,20,25,24.393,25,30S20.64,40,15.072,40z M45.072,40  C39.519,40,35,35.514,35,30s4.519-10,10.072-10C50.64,20,55,24.393,55,30S50.64,40,45.072,40z" transform="matrix(0.5888491272926331 0 0 0.5888491272926331 159.334526181221 188.334526181221)" id="L1_15"/><g transform="matrix(0.4872135519981384 0 0 0.4872135519981384 240.38359344005585 -6.616406559944153)" id="L1_16"><circle cx="30" cy="26" r="1"/><circle cx="33" cy="24" r="1"/><circle cx="27" cy="24" r="1"/><circle cx="24" cy="22" r="1"/><circle cx="36" cy="22" r="1"/><circle cx="39" cy="20" r="1"/><circle cx="21" cy="20" r="1"/><circle cx="30" cy="22" r="1"/><circle cx="30" cy="34" r="1"/><circle cx="30" cy="37" r="1"/><circle cx="30" cy="40" r="1"/><circle cx="30" cy="43" r="1"/><circle cx="30" cy="46" r="1"/><circle cx="30" cy="49" r="1"/><path d="M54,58h-3v-4h-5V43.778c0-2.7-1.342-5.208-3.589-6.706L31.803,30l10.608-7.072C44.658,21.43,46,18.922,46,16.222V6h5V2h3   c0.552,0,1-0.447,1-1s-0.448-1-1-1h-3h-1H10H9H6C5.448,0,5,0.447,5,1s0.448,1,1,1h3v4h5v10.222c0,2.7,1.342,5.208,3.589,6.706   L28.197,30l-10.608,7.072C15.342,38.57,14,41.078,14,43.778V54H9v4H6c-0.552,0-1,0.447-1,1s0.448,1,1,1h3h1h40h1h3   c0.552,0,1-0.447,1-1S54.552,58,54,58z M11,4V2h38v2h-3H14H11z M18.698,21.264C17.009,20.137,16,18.252,16,16.222V6h28v10.222   c0,2.03-1.009,3.915-2.698,5.042L30,28.798L18.698,21.264z M16,43.778c0-2.03,1.009-3.915,2.698-5.042L30,31.202l11.302,7.534   C42.991,39.863,44,41.748,44,43.778V54H16V43.778z M11,56h3h32h3v2H11V56z"/></g><g transform="matrix(-0.6261325478553772 0 0 0.6261325478553772 282.7313728437963 140.1689614057541)" id="L1_17"><path d="M49.467,3.51c-4.677-4.679-12.291-4.681-16.97,0l-9.192,9.192c-0.391,0.391-0.391,1.023,0,1.414s1.023,0.391,1.414,0   l9.192-9.192c1.88-1.88,4.391-2.915,7.07-2.915c2.681,0,5.191,1.036,7.071,2.916s2.916,4.391,2.916,7.071   c0,2.68-1.036,5.19-2.916,7.07L36.033,31.088c-3.898,3.898-10.244,3.898-14.143,0c-0.391-0.391-1.023-0.391-1.414,0   s-0.391,1.023,0,1.414c2.34,2.339,5.412,3.509,8.485,3.509s6.146-1.17,8.485-3.509L49.467,20.48   c2.258-2.258,3.502-5.271,3.502-8.485C52.969,8.781,51.725,5.768,49.467,3.51z"/><path d="M26.84,40.279l-7.778,7.778c-1.88,1.88-4.391,2.916-7.071,2.916c-2.68,0-5.19-1.036-7.071-2.916   c-3.898-3.898-3.898-10.243,0-14.142l11.314-11.314c3.899-3.898,10.244-3.896,14.142,0c0.391,0.391,1.023,0.391,1.414,0   s0.391-1.023,0-1.414c-4.677-4.679-12.291-4.681-16.97,0L3.505,32.502c-2.258,2.258-3.501,5.271-3.501,8.485   c0,3.214,1.244,6.227,3.502,8.484s5.271,3.502,8.484,3.502c3.215,0,6.228-1.244,8.485-3.502l7.778-7.778   c0.391-0.391,0.391-1.023,0-1.414S27.231,39.889,26.84,40.279z"/><path d="M33.969,44.009c-0.553,0-1,0.447-1,1v6c0,0.553,0.447,1,1,1s1-0.447,1-1v-6C34.969,44.456,34.522,44.009,33.969,44.009z"/><path d="M38.433,42.302c-0.391-0.391-1.023-0.391-1.414,0s-0.391,1.023,0,1.414l4.243,4.242c0.195,0.195,0.451,0.293,0.707,0.293   s0.512-0.098,0.707-0.293c0.391-0.391,0.391-1.023,0-1.414L38.433,42.302z"/><path d="M44.969,38.009h-6c-0.553,0-1,0.447-1,1s0.447,1,1,1h6c0.553,0,1-0.447,1-1S45.522,38.009,44.969,38.009z"/><path d="M15.969,11.009c0.553,0,1-0.447,1-1v-6c0-0.553-0.447-1-1-1s-1,0.447-1,1v6C14.969,10.562,15.417,11.009,15.969,11.009z"/><path d="M11.504,12.716c0.195,0.195,0.451,0.293,0.707,0.293s0.512-0.098,0.707-0.293c0.391-0.391,0.391-1.023,0-1.414L8.676,7.06   c-0.391-0.391-1.023-0.391-1.414,0s-0.391,1.023,0,1.414L11.504,12.716z"/><path d="M4.969,17.009h6c0.553,0,1-0.447,1-1s-0.447-1-1-1h-6c-0.553,0-1,0.447-1,1S4.417,17.009,4.969,17.009z"/></g><g transform="matrix(0.46279606223106384 0 0 0.46279606223106384 119.50450775027275 65.50450775027275)" id="L1_18"><path d="M1,9h3v4c0,0.553,0.447,1,1,1h12c0.553,0,1-0.447,1-1V9h35c0.553,0,1-0.447,1-1s-0.447-1-1-1H18V3c0-0.553-0.447-1-1-1H5   C4.447,2,4,2.447,4,3v4H1C0.447,7,0,7.447,0,8S0.447,9,1,9z M6,4h10v8H6V4z"/><path d="M53,26H34v-4c0-0.553-0.447-1-1-1H21c-0.553,0-1,0.447-1,1v4H1c-0.553,0-1,0.447-1,1s0.447,1,1,1h19v4c0,0.553,0.447,1,1,1   h12c0.553,0,1-0.447,1-1v-4h19c0.553,0,1-0.447,1-1S53.553,26,53,26z M32,31H22v-8h10V31z"/><path d="M53,45h-3v-4c0-0.553-0.447-1-1-1H37c-0.553,0-1,0.447-1,1v4H1c-0.553,0-1,0.447-1,1s0.447,1,1,1h35v4c0,0.553,0.447,1,1,1   h12c0.553,0,1-0.447,1-1v-4h3c0.553,0,1-0.447,1-1S53.553,45,53,45z M48,50H38v-8h10V50z"/></g><path d="M60,30c0-4.463-2.94-8.25-6.984-9.533c1.954-3.766,1.354-8.524-1.802-11.68c-3.157-3.156-7.914-3.753-11.68-1.801   C38.252,2.941,34.463,0,30,0c-4.463,0-8.251,2.941-9.533,6.986C16.7,5.033,11.942,5.633,8.787,8.787   c-3.156,3.156-3.756,7.913-1.802,11.68C2.94,21.749,0,25.537,0,30s2.94,8.251,6.985,9.533c-1.953,3.766-1.354,8.524,1.802,11.68   c1.949,1.95,4.51,2.924,7.071,2.924c1.584,0,3.168-0.375,4.608-1.122C21.749,57.059,25.537,60,30,60s8.251-2.941,9.533-6.985   c1.44,0.747,3.024,1.122,4.609,1.122c2.561,0,5.122-0.975,7.071-2.924c3.156-3.156,3.756-7.914,1.802-11.68   C57.06,38.25,60,34.463,60,30z M2,30c0-3.774,2.63-6.938,6.151-7.775c0.2,0.242,0.41,0.478,0.636,0.704L15.858,30l-7.071,7.071   c-0.226,0.226-0.436,0.462-0.636,0.704C4.63,36.938,2,33.774,2,30z M18.687,30L20,28.687v2.627L18.687,30z M20,34.142V38h-9.313   l6.586-6.586L20,34.142z M17.272,28.586L10.687,22H20v3.858L17.272,28.586z M10.201,49.799c-2.668-2.668-3.046-6.765-1.149-9.847   C9.365,39.981,9.68,40,10,40h10v10c0,0.32,0.018,0.635,0.048,0.948C16.965,52.845,12.869,52.467,10.201,49.799z M20,10v10H10   c-0.32,0-0.635,0.019-0.948,0.048c-1.897-3.082-1.519-7.178,1.149-9.847c1.56-1.56,3.608-2.339,5.656-2.339   c1.457,0,2.91,0.402,4.191,1.19C20.018,9.365,20,9.68,20,10z M30,2c3.774,0,6.938,2.63,7.776,6.151   c-0.242,0.2-0.478,0.41-0.704,0.636L30,15.858l-7.071-7.071c-0.226-0.226-0.463-0.436-0.704-0.636C23.062,4.63,26.226,2,30,2z    M31.314,20h-2.627L30,18.687L31.314,20z M22,10.687l6.586,6.586L25.858,20H22V10.687z M22,22h1.858L22,23.858V22z M22,36.142   L23.858,38H22V36.142z M22,40h3.858l2.728,2.728L22,49.313V40z M30,58c-3.774,0-6.938-2.63-7.776-6.151   c0.242-0.2,0.478-0.41,0.704-0.636L30,44.142l7.071,7.071c0.226,0.226,0.463,0.436,0.704,0.636C36.938,55.37,33.774,58,30,58z    M28.687,40h2.627L30,41.313L28.687,40z M38,49.313l-6.586-6.586L34.142,40H38V49.313z M38,38h-1.858L38,36.142V38z M38,33.314   L33.314,38h-6.627L22,33.313v-6.627L26.687,22h6.627L38,26.686V33.314z M38,23.858L36.142,22H38V23.858z M38,20h-3.858   l-2.728-2.728L38,10.687V20z M44.143,7.862c2.049,0,4.098,0.779,5.657,2.339c2.668,2.668,3.046,6.765,1.149,9.847   C50.636,20.019,50.32,20,50,20H40V10c0-0.32-0.018-0.635-0.048-0.948C41.233,8.264,42.686,7.862,44.143,7.862z M42.728,31.414   L49.314,38H40v-3.858L42.728,31.414z M40,31.314v-2.628L41.314,30L40,31.314z M40,25.858V22h9.314l-6.586,6.586L40,25.858z    M49.8,49.799c-2.67,2.668-6.766,3.046-9.848,1.149C39.982,50.635,40,50.32,40,50V40h10c0.32,0,0.636-0.019,0.949-0.048   C52.846,43.034,52.468,47.13,49.8,49.799z M51.85,37.775c-0.2-0.242-0.41-0.478-0.636-0.704L44.142,30l7.072-7.071   c0.226-0.226,0.436-0.462,0.636-0.704C55.371,23.063,58,26.227,58,30S55.371,36.937,51.85,37.775z" transform="matrix(0.4249182939529419 0 0 0.4249182939529419 75.25245118141174 192.25245118141174)" id="L1_19"/><g transform="matrix(0.4647192852114234 0.23235965127819808 -0.23235965127819808 0.4647192852114234 306.02921098200324 289.08763190531135)" id="L1_20"><path d="M55.201,15.5h-8.524l-4-10H17.323l-4,10H12v-5H6v5H4.799C2.152,15.5,0,17.652,0,20.299v29.368   C0,52.332,2.168,54.5,4.833,54.5h50.334c2.665,0,4.833-2.168,4.833-4.833V20.299C60,17.652,57.848,15.5,55.201,15.5z M8,12.5h2v3H8   V12.5z M58,49.667c0,1.563-1.271,2.833-2.833,2.833H4.833C3.271,52.5,2,51.229,2,49.667V20.299C2,18.756,3.256,17.5,4.799,17.5H6h6   h2.677l4-10h22.646l4,10h9.878c1.543,0,2.799,1.256,2.799,2.799V49.667z"/><path d="M30,14.5c-9.925,0-18,8.075-18,18s8.075,18,18,18s18-8.075,18-18S39.925,14.5,30,14.5z M30,48.5c-8.822,0-16-7.178-16-16   s7.178-16,16-16s16,7.178,16,16S38.822,48.5,30,48.5z"/><path d="M30,20.5c-6.617,0-12,5.383-12,12s5.383,12,12,12s12-5.383,12-12S36.617,20.5,30,20.5z M30,42.5c-5.514,0-10-4.486-10-10   s4.486-10,10-10s10,4.486,10,10S35.514,42.5,30,42.5z"/><path d="M52,19.5c-2.206,0-4,1.794-4,4s1.794,4,4,4s4-1.794,4-4S54.206,19.5,52,19.5z M52,25.5c-1.103,0-2-0.897-2-2s0.897-2,2-2   s2,0.897,2,2S53.103,25.5,52,25.5z"/></g></defs><g fi:class="KUsePattern" opacity="0.1"><pattern id="pattern_L1_5" width="350" height="350" patternUnits="userSpaceOnUse"><use xlink:href="#L1_5" x="-350" y="-350"/><use xlink:href="#L1_5" x="0" y="-350"/><use xlink:href="#L1_5" x="350" y="-350"/><use xlink:href="#L1_5" x="-350" y="0"/><use xlink:href="#L1_5" x="0" y="0"/><use xlink:href="#L1_5" x="350" y="0"/><use xlink:href="#L1_5" x="-350" y="350"/><use xlink:href="#L1_5" x="0" y="350"/><use xlink:href="#L1_5" x="350" y="350"/></pattern><rect x="0" y="0" width="100%" height="100%" fill="url(#pattern_L1_5)"/></g><g fi:class="KUsePattern" opacity="0.1"><pattern id="pattern_L1_6" width="350" height="350" patternUnits="userSpaceOnUse"><use xlink:href="#L1_6" x="-350" y="-350"/><use xlink:href="#L1_6" x="0" y="-350"/><use xlink:href="#L1_6" x="350" y="-350"/><use xlink:href="#L1_6" x="-350" y="0"/><use xlink:href="#L1_6" x="0" y="0"/><use xlink:href="#L1_6" x="350" y="0"/><use xlink:href="#L1_6" x="-350" y="350"/><use xlink:href="#L1_6" x="0" y="350"/><use xlink:href="#L1_6" x="350" y="350"/></pattern><rect x="0" y="0" width="100%" height="100%" fill="url(#pattern_L1_6)"/></g><g fi:class="KUsePattern" transform="matrix(1 0 0 1 20 20)" opacity="0.1"><pattern id="pattern_UNKNOWN" width="350" height="350" patternUnits="userSpaceOnUse"><use xlink:href="#UNKNOWN" x="-350" y="-350"/><use xlink:href="#UNKNOWN" x="0" y="-350"/><use xlink:href="#UNKNOWN" x="350" y="-350"/><use xlink:href="#UNKNOWN" x="-350" y="0"/><use xlink:href="#UNKNOWN" x="0" y="0"/><use xlink:href="#UNKNOWN" x="350" y="0"/><use xlink:href="#UNKNOWN" x="-350" y="350"/><use xlink:href="#UNKNOWN" x="0" y="350"/><use xlink:href="#UNKNOWN" x="350" y="350"/></pattern><rect x="0" y="0" width="100%" height="100%" fill="url(#pattern_UNKNOWN)"/></g><g fi:class="KUsePattern" opacity="0.1"><pattern id="pattern_L1_7" width="350" height="350" patternUnits="userSpaceOnUse"><use xlink:href="#L1_7" x="-350" y="-350"/><use xlink:href="#L1_7" x="0" y="-350"/><use xlink:href="#L1_7" x="350" y="-350"/><use xlink:href="#L1_7" x="-350" y="0"/><use xlink:href="#L1_7" x="0" y="0"/><use xlink:href="#L1_7" x="350" y="0"/><use xlink:href="#L1_7" x="-350" y="350"/><use xlink:href="#L1_7" x="0" y="350"/><use xlink:href="#L1_7" x="350" y="350"/></pattern><rect x="0" y="0" width="100%" height="100%" fill="url(#pattern_L1_7)"/></g><g fi:class="KUsePattern" opacity="0.1"><pattern id="pattern_L1_8" width="350" height="350" patternUnits="userSpaceOnUse"><use xlink:href="#L1_8" x="-350" y="-350"/><use xlink:href="#L1_8" x="0" y="-350"/><use xlink:href="#L1_8" x="350" y="-350"/><use xlink:href="#L1_8" x="-350" y="0"/><use xlink:href="#L1_8" x="0" y="0"/><use xlink:href="#L1_8" x="350" y="0"/><use xlink:href="#L1_8" x="-350" y="350"/><use xlink:href="#L1_8" x="0" y="350"/><use xlink:href="#L1_8" x="350" y="350"/></pattern><rect x="0" y="0" width="100%" height="100%" fill="url(#pattern_L1_8)"/></g><g fi:class="KUsePattern" opacity="0.1"><pattern id="pattern_L1_9" width="350" height="350" patternUnits="userSpaceOnUse"><use xlink:href="#L1_9" x="-350" y="-350"/><use xlink:href="#L1_9" x="0" y="-350"/><use xlink:href="#L1_9" x="350" y="-350"/><use xlink:href="#L1_9" x="-350" y="0"/><use xlink:href="#L1_9" x="0" y="0"/><use xlink:href="#L1_9" x="350" y="0"/><use xlink:href="#L1_9" x="-350" y="350"/><use xlink:href="#L1_9" x="0" y="350"/><use xlink:href="#L1_9" x="350" y="350"/></pattern><rect x="0" y="0" width="100%" height="100%" fill="url(#pattern_L1_9)"/></g><g fi:class="KUsePattern" opacity="0.1"><pattern id="pattern_L1_11" width="350" height="350" patternUnits="userSpaceOnUse"><use xlink:href="#L1_11" x="-350" y="-350"/><use xlink:href="#L1_11" x="0" y="-350"/><use xlink:href="#L1_11" x="350" y="-350"/><use xlink:href="#L1_11" x="-350" y="0"/><use xlink:href="#L1_11" x="0" y="0"/><use xlink:href="#L1_11" x="350" y="0"/><use xlink:href="#L1_11" x="-350" y="350"/><use xlink:href="#L1_11" x="0" y="350"/><use xlink:href="#L1_11" x="350" y="350"/></pattern><rect x="0" y="0" width="100%" height="100%" fill="url(#pattern_L1_11)"/></g><g fi:class="KUsePattern" opacity="0.1"><pattern id="pattern_L1_12" width="350" height="350" patternUnits="userSpaceOnUse"><use xlink:href="#L1_12" x="-350" y="-350"/><use xlink:href="#L1_12" x="0" y="-350"/><use xlink:href="#L1_12" x="350" y="-350"/><use xlink:href="#L1_12" x="-350" y="0"/><use xlink:href="#L1_12" x="0" y="0"/><use xlink:href="#L1_12" x="350" y="0"/><use xlink:href="#L1_12" x="-350" y="350"/><use xlink:href="#L1_12" x="0" y="350"/><use xlink:href="#L1_12" x="350" y="350"/></pattern><rect x="0" y="0" width="100%" height="100%" fill="url(#pattern_L1_12)"/></g><g fi:class="KUsePattern" opacity="0.1"><pattern id="pattern_L1_13" width="350" height="350" patternUnits="userSpaceOnUse"><use xlink:href="#L1_13" x="-350" y="-350"/><use xlink:href="#L1_13" x="0" y="-350"/><use xlink:href="#L1_13" x="350" y="-350"/><use xlink:href="#L1_13" x="-350" y="0"/><use xlink:href="#L1_13" x="0" y="0"/><use xlink:href="#L1_13" x="350" y="0"/><use xlink:href="#L1_13" x="-350" y="350"/><use xlink:href="#L1_13" x="0" y="350"/><use xlink:href="#L1_13" x="350" y="350"/></pattern><rect x="0" y="0" width="100%" height="100%" fill="url(#pattern_L1_13)"/></g><g fi:class="KUsePattern" opacity="0.1"><pattern id="pattern_L1_14" width="350" height="350" patternUnits="userSpaceOnUse"><use xlink:href="#L1_14" x="-350" y="-350"/><use xlink:href="#L1_14" x="0" y="-350"/><use xlink:href="#L1_14" x="350" y="-350"/><use xlink:href="#L1_14" x="-350" y="0"/><use xlink:href="#L1_14" x="0" y="0"/><use xlink:href="#L1_14" x="350" y="0"/><use xlink:href="#L1_14" x="-350" y="350"/><use xlink:href="#L1_14" x="0" y="350"/><use xlink:href="#L1_14" x="350" y="350"/></pattern><rect x="0" y="0" width="100%" height="100%" fill="url(#pattern_L1_14)"/></g><g fi:class="KUsePattern" opacity="0.1"><pattern id="pattern_L1_15" width="350" height="350" patternUnits="userSpaceOnUse"><use xlink:href="#L1_15" x="-350" y="-350"/><use xlink:href="#L1_15" x="0" y="-350"/><use xlink:href="#L1_15" x="350" y="-350"/><use xlink:href="#L1_15" x="-350" y="0"/><use xlink:href="#L1_15" x="0" y="0"/><use xlink:href="#L1_15" x="350" y="0"/><use xlink:href="#L1_15" x="-350" y="350"/><use xlink:href="#L1_15" x="0" y="350"/><use xlink:href="#L1_15" x="350" y="350"/></pattern><rect x="0" y="0" width="100%" height="100%" fill="url(#pattern_L1_15)"/></g><g fi:class="KUsePattern" opacity="0.1"><pattern id="pattern_L1_16" width="350" height="350" patternUnits="userSpaceOnUse"><use xlink:href="#L1_16" x="-350" y="-350"/><use xlink:href="#L1_16" x="0" y="-350"/><use xlink:href="#L1_16" x="350" y="-350"/><use xlink:href="#L1_16" x="-350" y="0"/><use xlink:href="#L1_16" x="0" y="0"/><use xlink:href="#L1_16" x="350" y="0"/><use xlink:href="#L1_16" x="-350" y="350"/><use xlink:href="#L1_16" x="0" y="350"/><use xlink:href="#L1_16" x="350" y="350"/></pattern><rect x="0" y="0" width="100%" height="100%" fill="url(#pattern_L1_16)"/></g><g fi:class="KUsePattern" opacity="0.1"><pattern id="pattern_L1_17" width="350" height="350" patternUnits="userSpaceOnUse"><use xlink:href="#L1_17" x="-350" y="-350"/><use xlink:href="#L1_17" x="0" y="-350"/><use xlink:href="#L1_17" x="350" y="-350"/><use xlink:href="#L1_17" x="-350" y="0"/><use xlink:href="#L1_17" x="0" y="0"/><use xlink:href="#L1_17" x="350" y="0"/><use xlink:href="#L1_17" x="-350" y="350"/><use xlink:href="#L1_17" x="0" y="350"/><use xlink:href="#L1_17" x="350" y="350"/></pattern><rect x="0" y="0" width="100%" height="100%" fill="url(#pattern_L1_17)"/></g><g fi:class="KUsePattern" opacity="0.1"><pattern id="pattern_L1_18" width="350" height="350" patternUnits="userSpaceOnUse"><use xlink:href="#L1_18" x="-350" y="-350"/><use xlink:href="#L1_18" x="0" y="-350"/><use xlink:href="#L1_18" x="350" y="-350"/><use xlink:href="#L1_18" x="-350" y="0"/><use xlink:href="#L1_18" x="0" y="0"/><use xlink:href="#L1_18" x="350" y="0"/><use xlink:href="#L1_18" x="-350" y="350"/><use xlink:href="#L1_18" x="0" y="350"/><use xlink:href="#L1_18" x="350" y="350"/></pattern><rect x="0" y="0" width="100%" height="100%" fill="url(#pattern_L1_18)"/></g><g fi:class="KUsePattern" opacity="0.1"><pattern id="pattern_L1_19" width="350" height="350" patternUnits="userSpaceOnUse"><use xlink:href="#L1_19" x="-350" y="-350"/><use xlink:href="#L1_19" x="0" y="-350"/><use xlink:href="#L1_19" x="350" y="-350"/><use xlink:href="#L1_19" x="-350" y="0"/><use xlink:href="#L1_19" x="0" y="0"/><use xlink:href="#L1_19" x="350" y="0"/><use xlink:href="#L1_19" x="-350" y="350"/><use xlink:href="#L1_19" x="0" y="350"/><use xlink:href="#L1_19" x="350" y="350"/></pattern><rect x="0" y="0" width="100%" height="100%" fill="url(#pattern_L1_19)"/></g><g fi:class="KUsePattern" opacity="0.1"><pattern id="pattern_L1_20" width="350" height="350" patternUnits="userSpaceOnUse"><use xlink:href="#L1_20" x="-350" y="-350"/><use xlink:href="#L1_20" x="0" y="-350"/><use xlink:href="#L1_20" x="350" y="-350"/><use xlink:href="#L1_20" x="-350" y="0"/><use xlink:href="#L1_20" x="0" y="0"/><use xlink:href="#L1_20" x="350" y="0"/><use xlink:href="#L1_20" x="-350" y="350"/><use xlink:href="#L1_20" x="0" y="350"/><use xlink:href="#L1_20" x="350" y="350"/></pattern><rect x="0" y="0" width="100%" height="100%" fill="url(#pattern_L1_20)"/></g></svg>